<svg width="111" height="26" viewBox="0 0 111 26" fill="none" xmlns="http://www.w3.org/2000/svg">
<g clip-path="url(#clip0_1_4285)">
<path d="M5.4048 6.88714C6.57946 5.68722 8.08287 4.88867 9.71162 4.59955C11.3404 4.31043 13.0159 4.54469 14.5114 5.27062L15.5737 3.07758C13.508 2.06219 11.1765 1.7744 8.93702 2.25835C6.69753 2.7423 4.67372 3.97127 3.17607 5.75671C3.04197 5.91621 2.9363 6.09896 2.86394 6.29649C3.06613 6.25701 3.27147 6.23714 3.47725 6.23714C4.17058 6.23548 4.84616 6.4633 5.4048 6.88714Z" fill="url(#paint0_linear_1_4285)"/>
<path d="M7.81697 19.0874L8.06066 18.5844L8.23863 18.2141L8.30434 18.0813L8.54802 17.5811L8.7917 17.0781L8.83825 16.9763L9.03538 16.575L9.27907 16.072L9.35299 15.9222L9.29549 15.8063L5.74978 8.47828L5.73335 8.44719C5.52604 8.0156 5.20594 7.65246 4.8092 7.39876C4.41246 7.14507 3.9549 7.01095 3.48819 7.01154C3.24287 7.01234 2.99878 7.04752 2.76262 7.1161C2.61295 7.16089 2.46655 7.21661 2.32454 7.28284C1.8784 7.49752 1.51424 7.85947 1.28958 8.31154C1.09523 8.68284 0.988718 9.09632 0.978726 9.51822C0.968733 9.94012 1.05555 10.3585 1.23208 10.7391L1.27041 10.8154L5.55265 19.6583L5.63479 19.825L5.71419 19.9918L5.79633 20.1613L5.87847 20.3281L5.95787 20.4948L6.04001 20.6615L6.11941 20.8311L6.20155 20.9978L6.28369 21.1646L6.3631 21.3313L6.44524 21.4981L6.52464 21.6676L6.54654 21.71C6.56297 21.6733 6.57666 21.6394 6.59309 21.6054V21.5885L6.6232 21.5263L6.83677 21.0854L7.08045 20.5852L7.32413 20.0822L7.56508 19.5791L7.81697 19.0874Z" fill="url(#paint1_linear_1_4285)"/>
<path d="M22.4516 1.84259C22.4133 1.72838 22.3676 1.61696 22.3147 1.50911C22.2743 1.42564 22.2295 1.34451 22.1805 1.26607C22.1367 1.19824 22.0929 1.13324 22.0436 1.07107C22.0019 1.01482 21.9571 0.961037 21.9095 0.909983C21.8657 0.861939 21.8191 0.816721 21.7726 0.771504L21.6384 0.649982L21.5015 0.545417L21.3673 0.457808C21.3208 0.429547 21.277 0.401287 21.2304 0.378678C21.1862 0.353242 21.1405 0.330591 21.0935 0.310852L20.9594 0.254331C20.9128 0.237374 20.869 0.217591 20.8225 0.203461L20.6883 0.166722L20.5514 0.132809L20.4173 0.113026L20.2804 0.0960693H20.1462H20.0093C19.9655 0.0960693 19.9189 0.0960693 19.8751 0.0960693H19.7382L19.6041 0.118677L19.4672 0.149765L19.3303 0.18933L19.1961 0.237374L19.0592 0.293896L18.925 0.361721L18.7881 0.440852C18.7418 0.468343 18.697 0.498537 18.654 0.531287C18.6074 0.562374 18.5609 0.599113 18.5171 0.633026L18.3829 0.754547C18.3364 0.796938 18.2898 0.844982 18.246 0.893026C18.1984 0.94408 18.1536 0.997861 18.1119 1.05411C18.0626 1.11629 18.0188 1.18129 17.975 1.24911C17.926 1.32755 17.8812 1.40869 17.8408 1.49216V1.50629L17.8244 1.53737L17.7121 1.76911L17.578 2.05172L17.4411 2.33433L17.3042 2.61694L17.17 2.89955L17.0331 3.18216L16.8989 3.46477L16.762 3.74737V3.76433L16.6361 4.02716L16.4992 4.30977L16.365 4.59237L16.2281 4.87498L16.094 5.15759L15.9571 5.4402L15.8229 5.72281L15.6915 6.00542L15.5573 6.28803L15.4204 6.57064L15.2835 6.85324L15.1493 7.13585L15.0124 7.41846L14.8783 7.70107L14.7414 7.98368L14.6072 8.26629L14.4703 8.5489L14.3362 8.83151L14.1993 9.11411L14.0651 9.39672L13.9282 9.67933L13.794 9.96194L13.6571 10.2445L13.523 10.5272L13.3861 10.8098L13.2492 11.0924L13.115 11.375L12.9781 11.6576L12.8439 11.9402L12.707 12.2228L12.5729 12.5054L12.436 12.788L12.3018 13.0706L12.1649 13.3532L12.0308 13.6359L11.8939 13.9185L11.7597 14.2011L11.6228 14.4837L11.4886 14.7663L11.3517 15.0489L11.2148 15.3315L11.0807 15.6141L10.9438 15.8967L10.8096 16.1793L10.6727 16.4619L10.5385 16.7446L10.4372 16.9537L10.4071 17.0159L10.3305 17.1741L10.273 17.2956L10.1361 17.5782V17.6037L10.0786 17.7195L10.0129 17.858L9.90333 18.0813L9.87595 18.1378L9.74179 18.4204L9.65965 18.5872L9.60489 18.7002L9.47073 18.9828L9.41871 19.0902L9.38859 19.1496L9.33383 19.2654L9.19693 19.548L9.17502 19.5961L9.06276 19.8278L8.93134 20.1104L8.79718 20.393L8.69313 20.605L8.66028 20.6728L8.52612 20.9554L8.44945 21.1109L8.38922 21.2352L8.25505 21.5178L8.20577 21.6167L8.11815 21.7976L7.98399 22.0802L7.96483 22.1198L7.87721 22.3006L7.84709 22.36V22.3769C7.81164 22.4483 7.78055 22.522 7.754 22.5974C7.74141 22.6288 7.73044 22.6609 7.72114 22.6935C7.69074 22.7802 7.66605 22.8689 7.64722 22.9591C7.62525 23.0579 7.6088 23.1579 7.59793 23.2587C7.59793 23.3463 7.58424 23.4367 7.58424 23.5243V23.5413C7.58424 23.6176 7.58424 23.6911 7.58424 23.7646C7.58424 23.838 7.60067 23.9143 7.61162 23.9878C7.61162 24.0556 7.63627 24.1206 7.65269 24.1856C7.66912 24.2506 7.68555 24.3072 7.70745 24.3665C7.72662 24.4287 7.75126 24.488 7.7759 24.5474C7.80055 24.6067 7.80055 24.6067 7.81424 24.6378L7.83066 24.6689L7.84709 24.7C7.87447 24.7565 7.90459 24.8102 7.93471 24.8611L7.96756 24.9119C7.98673 24.9459 8.01137 24.9798 8.03328 25.0109C8.05518 25.0419 8.07708 25.0759 8.10173 25.1069L8.14006 25.1522C8.16744 25.1889 8.19756 25.2228 8.22767 25.2567V25.2737C8.26874 25.3161 8.30708 25.3585 8.34815 25.3952C8.39195 25.4376 8.43576 25.4743 8.47957 25.5111C8.52338 25.545 8.56719 25.5817 8.61373 25.6128L8.74789 25.7004H8.76432L8.88206 25.7682L8.92039 25.788L9.01896 25.8361L9.08741 25.8672L9.15312 25.8926L9.26538 25.9322H9.29002L9.42692 25.9717H9.45704L9.56108 25.9943L9.65965 26.0113H9.69798H9.83214H9.88143H9.96904H10.1306H10.2483H10.3825L10.5057 25.9915L10.6399 25.9604H10.6891L10.7768 25.935L10.9109 25.8869L11.0478 25.8304H11.067L11.182 25.7711C11.2285 25.7456 11.2751 25.7202 11.3189 25.6919L11.4558 25.6015L11.5899 25.4969C11.6365 25.4602 11.683 25.4206 11.7268 25.3783C11.7706 25.3359 11.8172 25.2878 11.861 25.2398L11.9075 25.1889L11.9979 25.0787C12.0444 25.0165 12.091 24.9487 12.1321 24.8837C12.1819 24.8053 12.2276 24.7242 12.269 24.6406V24.6096L12.2963 24.5502L12.3812 24.3778L12.5181 24.0952L12.54 24.0443L12.6523 23.8126L12.7837 23.53L12.9179 23.2474L13.0219 23.0354L13.0548 22.9676L13.0712 22.9337L13.1889 22.6878L13.2793 22.5069L13.3258 22.408L13.4627 22.1254L13.5969 21.8428L13.7338 21.5602L13.868 21.2776L14.0049 20.995L14.139 20.7124L14.2759 20.4298L14.4101 20.1472L14.547 19.8645L14.6811 19.5819L14.818 19.2993L14.9522 19.0167L15.0891 18.7341L15.2233 18.4515L15.3602 18.1689L15.4971 17.8863L15.6312 17.6037L15.7681 17.3211L15.9023 17.0385L16.0392 16.7559L16.1734 16.4732L16.3103 16.1906L16.4444 15.908L16.5813 15.6254L16.7155 15.3428L16.8524 15.0602L16.9865 14.7776L17.1234 14.495L17.2576 14.2124L17.3945 13.9298L17.5314 13.6472L17.6656 13.3646L17.8025 13.0819L17.9366 12.7993L18.0735 12.5167L18.2077 12.2341L18.3446 11.9515L18.4788 11.6689L18.6157 11.3863L18.7498 11.1037L18.8867 10.8211L19.0209 10.5385L19.1578 10.2559L19.2919 9.97325L19.4288 9.69064L19.5657 9.40803L19.6999 9.12542L19.8368 8.84281L19.971 8.5602L20.1079 8.27759L20.242 7.99498L20.3789 7.71238L20.5131 7.42977L20.65 7.14716L20.7842 6.86455L20.9211 6.58194L21.0552 6.29933L21.1921 6.01672L21.329 5.73411L21.4632 5.45151L21.6001 5.1689L21.7342 4.88629L21.8711 4.60368L22.0053 4.32107L22.1422 4.03846L22.2764 3.75585V3.7389C22.3265 3.63668 22.3695 3.5309 22.4051 3.42237C22.4945 3.15414 22.5398 2.87235 22.5392 2.58868C22.5452 2.33692 22.5157 2.08559 22.4516 1.84259Z" fill="url(#paint2_linear_1_4285)"/>
<path d="M32.7629 11.7791L28.6559 22.3345H27.4129L23.3059 11.7791H24.5599L28.0481 20.8395L31.5281 11.7791H32.7629Z" fill="#232323"/>
<path d="M35.2244 12.8813V16.4365H40.5224V17.4991H35.2244V21.2296H41.248V22.3261H34.0772V11.7791H41.2726V12.8813H35.2244Z" fill="#232323"/>
<path d="M51.5374 11.7791V22.3261H50.5325L44.3337 13.8902V22.3261H43.1728V11.7791H44.1776L50.3792 20.2376V11.7791H51.5374Z" fill="#232323"/>
<path d="M61.9938 11.7791V18.1463C61.9938 19.4717 61.6215 20.5315 60.874 21.3341C60.1265 22.1367 59.097 22.5324 57.7855 22.5324C56.474 22.5324 55.4473 22.1339 54.697 21.3341C53.9468 20.5343 53.5772 19.4717 53.5772 18.1463V11.7791H54.76V18.1152C54.7163 18.9912 54.9962 19.8517 55.5431 20.523C56.0633 21.1193 56.8135 21.4132 57.791 21.4132C58.7685 21.4132 59.5159 21.1109 60.0444 20.5146C60.5969 19.8493 60.8802 18.9902 60.8357 18.1152V11.7791H61.9938Z" fill="#232323"/>
<path d="M65.211 12.8813V16.4365H70.5172V17.4991H65.211V21.2296H71.2346V22.3261H64.0692V11.7791H71.2647V12.8813H65.211Z" fill="#232323"/>
<path d="M77.1788 18.6522H75.0048V22.3459H73.0143V11.7848H77.9919C78.4629 11.7645 78.9327 11.8472 79.3706 12.0274C79.8085 12.2076 80.2045 12.4812 80.5328 12.8305C81.0773 13.3936 81.4126 14.1363 81.4802 14.9288C81.5478 15.7213 81.3433 16.5131 80.9024 17.1657C80.502 17.76 79.9255 18.2043 79.2596 18.4318L81.8005 22.3261H79.4896L77.1788 18.6522ZM74.9883 16.8407H77.8496C78.0735 16.8504 78.2971 16.8145 78.5076 16.7349C78.718 16.6554 78.9113 16.5338 79.0762 16.3772C79.2231 16.231 79.3402 16.0559 79.4207 15.8623C79.5011 15.6687 79.5432 15.4604 79.5444 15.2497C79.5457 15.0391 79.5062 14.8303 79.4281 14.6356C79.35 14.441 79.235 14.2644 79.0899 14.1163C78.9367 13.9622 78.7548 13.8417 78.5553 13.7621C78.3558 13.6824 78.1428 13.6453 77.929 13.6528H75.0048L74.9883 16.8407Z" fill="#232323"/>
<path d="M83.1585 11.7791H85.1902V22.3261H83.1585V11.7791Z" fill="#232323"/>
<path d="M89.0836 13.6641V16.2895H93.7711V18.1463H89.0836V22.3261H87.0822V11.7791H94.5186V13.6641H89.0836Z" fill="#232323"/>
<path d="M95.6986 11.7791H97.7302V22.3261H95.6986V11.7791Z" fill="#232323"/>
<path d="M104.548 22.555C103.841 22.5755 103.137 22.4473 102.479 22.1783C101.821 21.9093 101.223 21.5051 100.722 20.9901C100.22 20.4752 99.8251 19.8604 99.5607 19.183C99.2964 18.5056 99.1683 17.7798 99.1842 17.0498C99.1657 16.3258 99.2918 15.6057 99.5547 14.9343C99.8175 14.2628 100.211 13.6544 100.712 13.1469C101.211 12.6335 101.806 12.2304 102.461 11.9622C103.115 11.694 103.816 11.5663 104.521 11.5869C105.681 11.5453 106.823 11.9032 107.765 12.6043C108.575 13.191 109.173 14.0376 109.468 15.0122L107.508 15.5039C107.313 14.923 106.936 14.4258 106.437 14.0908C105.871 13.7001 105.201 13.5024 104.521 13.5256C104.074 13.5054 103.629 13.5853 103.216 13.76C102.803 13.9347 102.432 14.1999 102.128 14.5374C101.522 15.2159 101.194 16.1103 101.213 17.0328C101.194 17.9656 101.523 18.8703 102.133 19.5593C102.432 19.9023 102.8 20.1737 103.212 20.3543C103.623 20.5349 104.068 20.6205 104.515 20.605C105.195 20.6227 105.864 20.4254 106.432 20.0398C106.934 19.716 107.316 19.2272 107.516 18.6522L109.454 19.1665C109.171 20.1346 108.578 20.9752 107.773 21.5517C106.841 22.2403 105.715 22.592 104.57 22.5522L104.548 22.555Z" fill="#232323"/>
<path d="M5.4048 6.88714C6.57946 5.68722 8.08287 4.88867 9.71162 4.59955C11.3404 4.31043 13.0159 4.54469 14.5114 5.27062L15.5737 3.07758C13.508 2.06219 11.1765 1.7744 8.93702 2.25835C6.69753 2.7423 4.67372 3.97127 3.17607 5.75671C3.04197 5.91621 2.9363 6.09896 2.86394 6.29649C3.06613 6.25701 3.27147 6.23714 3.47725 6.23714C4.17058 6.23548 4.84616 6.4633 5.4048 6.88714Z" fill="url(#paint3_linear_1_4285)"/>
<path d="M7.81697 19.0874L8.06066 18.5844L8.23863 18.2141L8.30434 18.0813L8.54802 17.5811L8.7917 17.0781L8.83825 16.9763L9.03538 16.575L9.27907 16.072L9.35299 15.9222L9.29549 15.8063L5.74978 8.47828L5.73335 8.44719C5.52604 8.0156 5.20594 7.65246 4.8092 7.39876C4.41246 7.14507 3.9549 7.01095 3.48819 7.01154C3.24287 7.01234 2.99878 7.04752 2.76262 7.1161C2.61295 7.16089 2.46655 7.21661 2.32454 7.28284C1.8784 7.49752 1.51424 7.85947 1.28958 8.31154C1.09523 8.68284 0.988718 9.09632 0.978726 9.51822C0.968733 9.94012 1.05555 10.3585 1.23208 10.7391L1.27041 10.8154L5.55265 19.6583L5.63479 19.825L5.71419 19.9918L5.79633 20.1613L5.87847 20.3281L5.95787 20.4948L6.04001 20.6615L6.11941 20.8311L6.20155 20.9978L6.28369 21.1646L6.3631 21.3313L6.44524 21.4981L6.52464 21.6676L6.54654 21.71C6.56297 21.6733 6.57666 21.6394 6.59309 21.6054V21.5885L6.6232 21.5263L6.83677 21.0854L7.08045 20.5852L7.32413 20.0822L7.56508 19.5791L7.81697 19.0874Z" fill="url(#paint4_linear_1_4285)"/>
<path d="M22.4516 1.84259C22.4133 1.72838 22.3676 1.61696 22.3147 1.50911C22.2743 1.42564 22.2295 1.34451 22.1805 1.26607C22.1367 1.19824 22.0929 1.13324 22.0436 1.07107C22.0019 1.01482 21.9571 0.961037 21.9095 0.909983C21.8657 0.861939 21.8191 0.816721 21.7726 0.771504L21.6384 0.649982L21.5015 0.545417L21.3673 0.457808C21.3208 0.429547 21.277 0.401287 21.2304 0.378678C21.1862 0.353242 21.1405 0.330591 21.0935 0.310852L20.9594 0.254331C20.9128 0.237374 20.869 0.217591 20.8225 0.203461L20.6883 0.166722L20.5514 0.132809L20.4173 0.113026L20.2804 0.0960693H20.1462H20.0093C19.9655 0.0960693 19.9189 0.0960693 19.8751 0.0960693H19.7382L19.6041 0.118677L19.4672 0.149765L19.3303 0.18933L19.1961 0.237374L19.0592 0.293896L18.9251 0.361721L18.7882 0.440852C18.7418 0.468343 18.697 0.498537 18.654 0.531287C18.6074 0.562374 18.5609 0.599113 18.5171 0.633026L18.3829 0.754547C18.3364 0.796938 18.2898 0.844982 18.246 0.893026C18.1984 0.94408 18.1536 0.997861 18.1119 1.05411C18.0626 1.11629 18.0188 1.18129 17.975 1.24911C17.926 1.32755 17.8812 1.40869 17.8408 1.49216V1.50629L17.8244 1.53737L17.7121 1.76911L17.578 2.05172L17.4411 2.33433L17.3042 2.61694L17.17 2.89955L17.0331 3.18216L16.8989 3.46477L16.762 3.74737V3.76433L16.6361 4.02716L16.4992 4.30977L16.365 4.59237L16.2281 4.87498L16.094 5.15759L15.9571 5.4402L15.8229 5.72281L15.6915 6.00542L15.5573 6.28803L15.4204 6.57064L15.2835 6.85324L15.1493 7.13585L15.0124 7.41846L14.8783 7.70107L14.7414 7.98368L14.6072 8.26629L14.4703 8.5489L14.3362 8.83151L14.1993 9.11411L14.0651 9.39672L13.9282 9.67933L13.794 9.96194L13.6571 10.2445L13.523 10.5272L13.3861 10.8098L13.2492 11.0924L13.115 11.375L12.9781 11.6576L12.8439 11.9402L12.707 12.2228L12.5729 12.5054L12.436 12.788L12.3018 13.0706L12.1649 13.3532L12.0308 13.6359L11.8939 13.9185L11.7597 14.2011L11.6228 14.4837L11.4886 14.7663L11.3517 15.0489L11.2148 15.3315L11.0807 15.6141L10.9438 15.8967L10.8096 16.1793L10.6727 16.4619L10.5385 16.7446L10.4372 16.9537L10.4071 17.0159L10.3305 17.1741L10.273 17.2956L10.1361 17.5782V17.6037L10.0786 17.7196L10.0129 17.858L9.90333 18.0813L9.87595 18.1378L9.74179 18.4204L9.65965 18.5872L9.60489 18.7002L9.47073 18.9828L9.41871 19.0902L9.38859 19.1496L9.33383 19.2654L9.19693 19.548L9.17502 19.5961L9.06276 19.8278L8.93134 20.1104L8.79718 20.393L8.69313 20.605L8.66028 20.6728L8.52612 20.9554L8.44945 21.1109L8.38922 21.2352L8.25505 21.5178L8.20577 21.6167L8.11815 21.7976L7.98399 22.0802L7.96483 22.1198L7.87721 22.3006L7.84709 22.36V22.3769C7.81164 22.4483 7.78055 22.522 7.754 22.5974C7.74141 22.6288 7.73044 22.6609 7.72114 22.6935C7.69074 22.7802 7.66605 22.869 7.64722 22.9591C7.62525 23.0579 7.6088 23.1579 7.59793 23.2587C7.59793 23.3463 7.58424 23.4367 7.58424 23.5243V23.5413C7.58424 23.6176 7.58424 23.6911 7.58424 23.7646C7.58424 23.838 7.60067 23.9143 7.61162 23.9878C7.61162 24.0556 7.63627 24.1206 7.65269 24.1856C7.66912 24.2506 7.68555 24.3072 7.70745 24.3665C7.72662 24.4287 7.75126 24.488 7.7759 24.5474C7.80055 24.6067 7.80055 24.6067 7.81424 24.6378L7.83066 24.6689L7.84709 24.7C7.87447 24.7565 7.90459 24.8102 7.93471 24.8611L7.96756 24.9119C7.98673 24.9459 8.01137 24.9798 8.03328 25.0109C8.05518 25.0419 8.07708 25.0759 8.10173 25.1069L8.14006 25.1522C8.16744 25.1889 8.19756 25.2228 8.22767 25.2567V25.2737C8.26874 25.3161 8.30708 25.3585 8.34815 25.3952C8.39195 25.4376 8.43576 25.4743 8.47957 25.5111C8.52338 25.545 8.56719 25.5817 8.61373 25.6128L8.74789 25.7004H8.76432L8.88206 25.7682L8.92039 25.788L9.01896 25.8361L9.08741 25.8672L9.15312 25.8926L9.26538 25.9322H9.29002L9.42692 25.9717H9.45704L9.56108 25.9943L9.65965 26.0113H9.69798H9.83214H9.88143H9.96904H10.1306H10.2483H10.3825L10.5057 25.9915L10.6399 25.9604H10.6891L10.7768 25.935L10.9109 25.8869L11.0478 25.8304H11.067L11.182 25.7711C11.2285 25.7456 11.2751 25.7202 11.3189 25.6919L11.4558 25.6015L11.5899 25.4969C11.6365 25.4602 11.683 25.4206 11.7268 25.3783C11.7706 25.3359 11.8172 25.2878 11.861 25.2398L11.9075 25.1889L11.9979 25.0787C12.0444 25.0165 12.091 24.9487 12.1321 24.8837C12.1819 24.8053 12.2276 24.7242 12.269 24.6406V24.6096L12.2963 24.5502L12.3812 24.3778L12.5181 24.0952L12.54 24.0443L12.6523 23.8126L12.7837 23.53L12.9179 23.2474L13.0219 23.0354L13.0548 22.9676L13.0712 22.9337L13.1889 22.6878L13.2793 22.5069L13.3258 22.408L13.4627 22.1254L13.5969 21.8428L13.7338 21.5602L13.868 21.2776L14.0049 20.995L14.139 20.7124L14.2759 20.4298L14.4101 20.1472L14.547 19.8646L14.6811 19.5819L14.818 19.2993L14.9522 19.0167L15.0891 18.7341L15.2233 18.4515L15.3602 18.1689L15.4971 17.8863L15.6312 17.6037L15.7681 17.3211L15.9023 17.0385L16.0392 16.7559L16.1734 16.4732L16.3103 16.1906L16.4444 15.908L16.5813 15.6254L16.7155 15.3428L16.8524 15.0602L16.9865 14.7776L17.1234 14.495L17.2576 14.2124L17.3945 13.9298L17.5314 13.6472L17.6656 13.3646L17.8025 13.0819L17.9366 12.7993L18.0735 12.5167L18.2077 12.2341L18.3446 11.9515L18.4788 11.6689L18.6157 11.3863L18.7498 11.1037L18.8867 10.8211L19.0209 10.5385L19.1578 10.2559L19.2919 9.97325L19.4288 9.69064L19.5657 9.40803L19.6999 9.12542L19.8368 8.84281L19.971 8.5602L20.1079 8.27759L20.242 7.99498L20.3789 7.71238L20.5131 7.42977L20.65 7.14716L20.7842 6.86455L20.9211 6.58194L21.0552 6.29933L21.1921 6.01672L21.329 5.73411L21.4632 5.45151L21.6001 5.1689L21.7342 4.88629L21.8711 4.60368L22.0053 4.32107L22.1422 4.03846L22.2764 3.75585V3.7389C22.3265 3.63668 22.3695 3.5309 22.4051 3.42237C22.4945 3.15414 22.5398 2.87235 22.5392 2.58868C22.5452 2.33692 22.5157 2.0856 22.4516 1.84259Z" fill="url(#paint5_linear_1_4285)"/>
</g>
<defs>
<linearGradient id="paint0_linear_1_4285" x1="2.86394" y1="4.45953" x2="15.5737" y2="4.45953" gradientUnits="userSpaceOnUse">
<stop offset="0.38" stop-color="#6920F1"/>
<stop offset="0.82" stop-color="#EF307F"/>
</linearGradient>
<linearGradient id="paint1_linear_1_4285" x1="-4.02762" y1="-3.30933" x2="12.0982" y2="24.0653" gradientUnits="userSpaceOnUse">
<stop offset="0.56" stop-color="#681AF3"/>
<stop offset="0.86" stop-color="#9A4DF3"/>
</linearGradient>
<linearGradient id="paint2_linear_1_4285" x1="8.66028" y1="26.5878" x2="22.9834" y2="-1.83539" gradientUnits="userSpaceOnUse">
<stop stop-color="#FF9B60"/>
<stop offset="1" stop-color="#DC2276"/>
</linearGradient>
<linearGradient id="paint3_linear_1_4285" x1="2.86394" y1="4.45953" x2="15.5737" y2="4.45953" gradientUnits="userSpaceOnUse">
<stop offset="0.38" stop-color="#6920F1"/>
<stop offset="0.82" stop-color="#EF307F"/>
</linearGradient>
<linearGradient id="paint4_linear_1_4285" x1="-4.02762" y1="-3.30933" x2="12.0982" y2="24.0653" gradientUnits="userSpaceOnUse">
<stop offset="0.56" stop-color="#681AF3"/>
<stop offset="0.86" stop-color="#9A4DF3"/>
</linearGradient>
<linearGradient id="paint5_linear_1_4285" x1="8.66028" y1="26.5878" x2="22.9834" y2="-1.83539" gradientUnits="userSpaceOnUse">
<stop stop-color="#FF9B60"/>
<stop offset="1" stop-color="#DC2276"/>
</linearGradient>
<clipPath id="clip0_1_4285">
<rect width="110.341" height="26" fill="white"/>
</clipPath>
</defs>
</svg>
