<svg width="20" height="21" viewBox="0 0 20 21" fill="none" xmlns="http://www.w3.org/2000/svg">
<g clipPath="url(#clip0_1_11774)">
<path d="M1.25 18.4316C1.25 18.7632 1.3817 19.0811 1.61612 19.3155C1.85054 19.5499 2.16848 19.6816 2.5 19.6816H17.5C17.8315 19.6816 18.1495 19.5499 18.3839 19.3155C18.6183 19.0811 18.75 18.7632 18.75 18.4316V3.43164C18.75 3.10012 18.6183 2.78218 18.3839 2.54776C18.1495 2.31334 17.8315 2.18164 17.5 2.18164H2.5C2.16848 2.18164 1.85054 2.31334 1.61612 2.54776C1.3817 2.78218 1.25 3.10012 1.25 3.43164L1.25 9.05664C1.25 9.38816 1.3817 9.7061 1.61612 9.94052C1.85054 10.1749 2.16848 10.3066 2.5 10.3066H11.6163L8.3075 6.99914C8.19014 6.88178 8.12421 6.72261 8.12421 6.55664C8.12421 6.39067 8.19014 6.2315 8.3075 6.11414C8.42486 5.99678 8.58403 5.93085 8.75 5.93085C8.91597 5.93085 9.07514 5.99678 9.1925 6.11414L13.5675 10.4891C13.6257 10.5472 13.6719 10.6162 13.7034 10.6921C13.7349 10.768 13.7511 10.8494 13.7511 10.9316C13.7511 11.0139 13.7349 11.0953 13.7034 11.1712C13.6719 11.2471 13.6257 11.3161 13.5675 11.3741L9.1925 15.7491C9.13439 15.8073 9.0654 15.8533 8.98948 15.8848C8.91356 15.9162 8.83218 15.9324 8.75 15.9324C8.66782 15.9324 8.58644 15.9162 8.51052 15.8848C8.4346 15.8533 8.36561 15.8073 8.3075 15.7491C8.24939 15.691 8.20329 15.622 8.17185 15.5461C8.1404 15.4702 8.12421 15.3888 8.12421 15.3066C8.12421 15.2245 8.1404 15.1431 8.17185 15.0672C8.20329 14.9912 8.24939 14.9223 8.3075 14.8641L11.6163 11.5566H2.5C1.83696 11.5566 1.20107 11.2932 0.732233 10.8244C0.263392 10.3556 0 9.71968 0 9.05664L0 3.43164C0 2.7686 0.263392 2.13272 0.732233 1.66387C1.20107 1.19503 1.83696 0.931641 2.5 0.931641H17.5C18.163 0.931641 18.7989 1.19503 19.2678 1.66387C19.7366 2.13272 20 2.7686 20 3.43164V18.4316C20 19.0947 19.7366 19.7306 19.2678 20.1994C18.7989 20.6682 18.163 20.9316 17.5 20.9316H2.5C1.83696 20.9316 1.20107 20.6682 0.732233 20.1994C0.263392 19.7306 0 19.0947 0 18.4316L0 15.3066C0 15.1409 0.065848 14.9819 0.183058 14.8647C0.300269 14.7475 0.45924 14.6816 0.625 14.6816C0.79076 14.6816 0.949732 14.7475 1.06694 14.8647C1.18415 14.9819 1.25 15.1409 1.25 15.3066L1.25 18.4316Z" fill="white"/>
</g>
<defs>
<clipPath id="clip0_1_11774">
<rect width="20" height="20" fill="white" transform="matrix(0 -1 1 0 0 20.9316)"/>
</clipPath>
</defs>
</svg>
